<svg width="198" height="43" viewBox="0 0 198 43" fill="none" xmlns="http://www.w3.org/2000/svg">
<path d="M64.3784 33.931C64.3784 33.931 65.0351 33.4102 64.6707 32.8375C64.4292 33.1501 64.3241 33.5432 64.3784 33.931Z" fill="white"/>
<path d="M123.229 35.8829C123.862 36.1418 124.561 36.2064 125.232 36.0682C124.59 35.8273 123.229 35.8829 123.229 35.8829Z" fill="white"/>
<path d="M63.2642 17.3983C62.8391 17.1148 62.1995 17.163 61.6016 17.1111C61.4118 17.0944 61.2637 16.6625 60.4324 16.7645L55.9778 17.2464L57.0787 13.9862L58.041 11.0504C58.041 11.0504 65.4109 11.219 68.7722 11.6361C68.7525 11.5913 68.7372 11.5447 68.7266 11.4971C68.5976 10.9095 68.9563 10.9762 68.6887 10.5092C68.4211 10.0421 69.2903 10.0217 68.6109 9.49722C68.5629 9.45999 68.509 9.43057 68.4514 9.4101C68.4258 9.14384 68.3304 8.88852 68.1743 8.66874C67.2253 7.35652 63.8887 6.4261 58.3048 6.52619C52.7209 6.62627 50.8134 8.29435 50.8134 8.29435C50.7251 8.39374 50.6516 8.5048 50.5951 8.62426C51.4227 8.39073 54.0115 7.67901 55.3136 7.60673C56.8661 7.51776 55.602 7.79207 55.0061 7.94035C54.4101 8.08862 51.7074 8.64094 50.3446 9.56765C50.3089 10.3156 50.4505 11.0615 50.7584 11.7473L52.6848 11.3877L52.5691 11.8121H52.5937L52.3793 12.5201L51.937 13.9881L51.8421 14.3346H51.8573L51.8023 14.4848L51.2708 16.4401L50.9064 17.3668V17.8487C50.9064 17.8487 50.5914 18.5493 50.5914 18.87C50.5914 19.1128 49.8625 21.1478 49.5095 22.1153C49.4507 22.4767 49.4108 22.7547 49.407 22.8567L47.3743 30.7541L50.4946 29.6643L50.58 29.7551L47.101 31.3879L39.9949 24.18L37.1953 21.1738L37.2466 21.1459C37.3419 21.0919 37.4531 21.0711 37.5621 21.0869C37.6711 21.1028 37.7713 21.1543 37.8464 21.2331C38.2127 21.1978 38.765 21.1367 39.3837 21.0477C39.3154 20.9773 39.2395 20.9069 39.1598 20.8346C40.2986 20.601 42.8969 19.9931 44.2711 19.0553L44.6507 18.7977C44.197 18.9459 43.6827 19.1035 43.2594 19.2091L43.1987 19.2258C42.9898 19.2829 42.7755 19.3189 42.5591 19.3333L42.6008 19.3148L42.6729 19.2833H42.6919H42.6767L42.5439 19.3092L42.4053 19.337L42.5078 19.3055L42.7147 19.2425L42.9387 19.1739L43.1683 19.0757L44.0433 18.705L44.2217 18.629L44.4836 18.4826C44.6412 18.3973 46.3626 17.3613 46.839 16.9702C47.1735 16.6672 47.4904 16.346 47.788 16.0083C48.012 15.5977 48.1841 15.162 48.3005 14.7109C48.5066 14.0028 48.5907 13.2662 48.5491 12.5313C48.5761 12.5341 48.6027 12.539 48.6288 12.5461C48.5186 12.1318 48.3473 11.7353 48.1202 11.3692C48.0462 11.2561 47.9683 11.1449 47.8886 11.0337C47.6788 10.6605 47.4362 10.3058 47.1636 9.97355C47.1161 9.88829 47.0706 9.80303 47.0269 9.71592C47.0264 9.7079 47.0264 9.69984 47.0269 9.69182L46.784 9.53614C46.7372 9.48671 46.6878 9.43667 46.6359 9.38601C45.0075 7.77724 42.7868 7.09519 40.6611 6.68558C40.6619 6.42494 40.6051 6.16719 40.4948 5.92988C40.3844 5.69257 40.223 5.48126 40.0215 5.31034C39.9406 5.28707 39.8661 5.24655 39.8032 5.19172C39.7237 5.09718 39.6333 5.01197 39.5337 4.9378L39.4881 4.91186C39.3735 4.86653 39.2651 4.80737 39.1655 4.73578C39.0819 4.69501 38.9965 4.65609 38.9073 4.61902C38.7673 4.58391 38.6316 4.53355 38.5031 4.46889L38.3664 4.43367C38.3303 4.43367 38.3057 4.45592 38.3038 4.45221C38.247 4.42132 38.1872 4.39587 38.1254 4.37622L38.0722 4.36695C38.0001 4.36695 37.8995 4.38919 37.8274 4.38363L37.1859 4.3095C37.072 4.3095 36.96 4.32988 36.8499 4.34656C36.82 4.35357 36.793 4.36905 36.7721 4.39105C36.7607 4.42256 36.7379 4.37808 36.6506 4.39105L36.5747 4.40958C36.4449 4.48116 36.3097 4.54312 36.1704 4.59492C36.0171 4.6391 35.8699 4.70134 35.732 4.78026C35.352 5.02897 35.0555 5.38163 34.8798 5.79408L34.8115 5.95718C33.9767 5.925 33.1407 5.94172 32.308 6.00723H32.3175C32.1913 5.99535 32.0645 6.02258 31.955 6.08507C31.7291 6.33343 33.2191 6.71153 33.2191 6.71153C33.2191 6.71153 33.5854 6.832 33.4089 6.89687C33.2205 6.926 33.029 6.93037 32.8395 6.90984C32.8395 6.90984 31.9094 6.7245 31.8905 6.90984C31.8715 7.09519 31.8354 7.25829 31.9968 7.44363C32.1581 7.62897 32.0385 7.74388 32.6231 7.86065C33.2077 7.97742 34.0485 8.20724 33.9953 8.38702C33.9669 8.4871 33.9365 8.58719 33.908 8.68727C33.0444 8.60016 31.8202 8.50193 31.49 8.56495C32.2412 8.79469 33.0047 8.98402 33.7771 9.13209C33.7448 9.2433 33.7125 9.3508 33.6822 9.4583L33.3424 9.56394C33.3424 9.7289 32.3403 9.4898 32.4807 9.62696C32.6212 9.76411 32.5377 9.84566 32.551 9.94203C32.5643 10.0384 33.0293 10.107 33.0919 10.3257C33.1128 10.398 33.2248 10.4554 33.3671 10.5018C33.3235 10.6371 33.2817 10.7612 33.2437 10.8725C32.9382 11.7417 32.2796 14.5163 31.9683 15.8526C31.6741 15.5987 31.4843 15.6543 31.1844 15.7729C30.7403 15.9453 31.2736 16.3141 31.0724 16.2937C30.8712 16.2733 30.4062 15.9453 30.4062 15.9453L30.9623 17.0091L30.4518 16.7274C30.4518 16.7274 31.2262 17.8691 31.2983 18.1935L31.2679 18.288C31.1313 18.364 30.7839 18.1379 30.7839 18.1379C30.7839 18.1379 30.0418 17.3057 29.8255 17.2853C29.6091 17.2649 30.0153 17.8561 30.0153 17.8561C29.8963 17.714 29.7466 17.5995 29.5768 17.5207C29.3965 17.478 30.2164 18.679 30.2164 18.679C30.2164 18.679 29.8368 18.4622 29.1839 18.0563C28.531 17.6504 28.4931 18.2064 28.4247 18.2528C28.3564 18.2991 28.6677 18.8848 28.6734 18.9941C28.6745 19.0028 28.6778 19.0111 28.6829 19.0182L29.2124 19.8115C29.2185 19.8223 29.2205 19.8348 29.2183 19.8469C29.216 19.859 29.2096 19.87 29.2 19.878C29.1905 19.8861 29.1784 19.8907 29.1658 19.891C29.1532 19.8914 29.1408 19.8875 29.1308 19.8801C28.8594 19.6428 28.5063 19.3926 28.3526 19.5298C28.0983 19.7577 28.3317 20.1062 28.3526 20.1358L30.1367 21.9188L28.1343 28.3317L28.7037 27.9332C26.7925 32.6557 28.1249 32.3814 28.1249 32.3814L28.7645 30.7244C28.8024 30.695 28.8332 30.6579 28.8548 30.6156C28.8765 30.5734 28.8884 30.527 28.8897 30.4798C28.8868 30.4459 28.8868 30.4117 28.8897 30.3778L28.9334 30.2666L29.1004 30.1591C28.8461 31.147 28.5899 32.4351 28.7398 33.2173C28.8613 33.853 29.2371 33.7733 29.6129 33.5101C29.6048 33.5423 29.5997 33.5752 29.5977 33.6083C29.5862 33.7183 29.5613 33.8266 29.5237 33.9308C29.5017 33.9941 29.4757 34.056 29.4459 34.1162C29.3935 34.2145 29.357 34.3202 29.3377 34.4294C29.296 34.608 29.2447 34.7843 29.1839 34.9576V34.9669C29.2068 34.9468 29.2238 34.9213 29.2333 34.8928C29.3422 34.5773 29.4689 34.2679 29.6129 33.9661C29.6451 33.8919 29.6774 33.8196 29.7078 33.7455C29.8009 33.6051 29.8654 33.4483 29.8976 33.284C29.9792 33.2062 30.0589 33.1246 30.131 33.0468C30.086 33.2277 30.0303 33.4059 29.964 33.5805C29.9064 33.7247 29.8675 33.8754 29.8482 34.0291C29.8374 34.1096 29.8324 34.1907 29.8331 34.2719C29.8377 34.3222 29.827 34.3728 29.8023 34.4173C29.7777 34.4618 29.7402 34.4983 29.6945 34.5221C29.6669 34.5379 29.6431 34.5593 29.6248 34.5849C29.6064 34.6105 29.5939 34.6396 29.5882 34.6703C29.5704 34.7104 29.5612 34.7536 29.5612 34.7973C29.5612 34.841 29.5704 34.8842 29.5882 34.9243C29.5913 34.9359 29.5913 34.9481 29.5883 34.9597C29.5853 34.9714 29.5794 34.9821 29.5711 34.991C29.5133 35.0304 29.469 35.086 29.444 35.1504C29.4238 35.203 29.4073 35.2569 29.3946 35.3116C29.3946 35.3469 29.3775 35.3821 29.3699 35.4191C29.3984 35.4342 29.4251 35.4523 29.4497 35.4729C29.4767 35.4987 29.4992 35.5288 29.5161 35.5618C29.5483 35.471 29.5806 35.3765 29.6148 35.2894V35.2801C29.6407 35.1997 29.6751 35.122 29.7173 35.0484C29.8079 34.8972 29.8817 34.7369 29.9374 34.5703L30.114 34.1013C30.2639 33.7029 30.4138 33.3062 30.5619 32.9077C31.0326 35.9511 32.1372 32.5871 32.1372 32.5871L33.667 28.0314C33.6751 28.0184 33.6821 28.0048 33.6879 27.9906C33.7246 27.9017 33.7587 27.8127 33.7904 27.7237C33.8435 27.5205 33.9127 27.3216 33.9972 27.1288C34.0191 27.0095 34.0698 26.897 34.1453 26.8007C34.2402 26.5969 34.3351 26.3893 34.4205 26.1724L34.4698 26.039L45.8578 37.0279L38.9965 30.0924C36.9999 28.176 36.1059 26.4338 36.1059 26.4338L39.1939 30.0275C40.6782 31.451 42.3256 32.6483 42.6274 32.6779C43.3372 32.7502 44.0813 34.5221 44.2236 34.1088C44.273 33.966 43.491 33.0208 42.4566 31.8569L42.2041 31.1859L46.8846 35.7435L49.9062 38.5996C49.9062 38.5996 50.3427 39.3095 50.6331 39.1556C50.9235 39.0018 49.76 38.392 49.6556 37.7359C49.5513 37.0798 47.4938 35.4377 47.4938 35.4377L43.1645 30.8134C43.1645 30.8134 47.3762 34.1495 47.9645 34.7389C48.5529 35.3283 49.743 36.1864 50.0979 36.192C50.4528 36.1976 51.7112 37.8453 51.8801 37.5543C52.049 37.2633 47.4255 32.4629 47.4255 32.4629L54.877 39.2483L47.9228 32.2053C49.0616 31.9421 52.5956 31.1192 55.5679 30.3519C56.863 30.0953 58.133 29.7301 59.3639 29.2602C60.1754 28.959 60.9693 28.6143 61.742 28.2279L59.622 29.5253L59.7188 29.4938C59.5442 29.5938 59.3639 29.6958 59.1817 29.794C57.7999 30.5446 56.1942 31.2767 54.6511 31.6141C54.6511 31.6141 61.0189 30.5131 62.674 28.4392C62.674 28.4392 62.8049 27.8516 62.9245 27.3975C63.1257 26.6432 63.64 25.4552 62.6512 24.4636C62.6512 24.4636 62.4139 24.1059 62.0818 24.5729C61.8725 24.7607 61.6413 24.9237 61.3928 25.0585C60.7418 25.4459 59.6542 25.9148 57.855 26.2354C57.7183 26.2744 57.5911 26.3077 57.464 26.3392H57.4431C57.2096 26.3967 56.9933 26.4412 56.7921 26.4727C55.9323 26.658 54.5145 26.9323 54.2583 26.962C53.8787 27.0046 53.8901 26.4968 53.8901 26.4968L54.4595 24.1874C54.6701 23.0346 55.0289 21.4888 55.0289 21.4888L55.9076 21.2701C55.9076 21.2701 55.9076 21.259 55.9076 21.2534C56.7351 21.057 62.0552 20.4083 62.7157 20.2582C62.8537 20.2289 62.9884 20.1867 63.1181 20.1321L63.4597 20.0321C63.6842 19.8972 63.8667 19.7051 63.9878 19.4765C64.1088 19.2479 64.1638 18.9915 64.1468 18.7347C64.1358 18.4551 64.0481 18.1836 63.8929 17.9485C63.7376 17.7134 63.5205 17.5234 63.2642 17.3983ZM37.0891 17.7245C37.1149 17.7224 37.1396 17.7128 37.1599 17.697C37.1801 17.6811 37.1951 17.6598 37.2029 17.6356C37.2488 17.5507 37.2604 17.4522 37.2352 17.3594C37.277 17.2575 37.3187 17.1518 37.3624 17.0425C37.4003 16.9772 37.4297 16.9074 37.4497 16.8349C37.4551 16.8192 37.4589 16.8031 37.4611 16.7867C37.6926 16.2084 37.909 15.6747 37.9185 15.6543C37.928 15.6339 38.0684 14.7813 38.3569 14.4607C38.6454 14.14 39.2528 11.7677 39.3287 11.7176C39.3993 11.5518 39.4564 11.3807 39.4995 11.2061C40.0139 11.3228 40.5965 11.4989 40.9192 11.6046C42.5723 12.1476 43.9826 13.1188 44.0053 14.1771C44.0376 15.8266 41.4487 16.4661 39.7462 17.0128C39.0079 17.2501 37.9678 17.58 37.0245 17.8765C37.0492 17.8265 37.0682 17.7801 37.0891 17.7245ZM47.5527 31.8346L47.1465 31.4232L50.9861 30.1035C51.1893 30.2586 51.4186 30.3777 51.6637 30.4557L47.5527 31.8346Z" fill="white"/>
<path d="M103.424 32.252H103.333L95.0368 23.856L93.2527 21.9414C93.0629 21.7301 92.8921 21.541 92.7516 21.3687L103.861 31.7386C103.861 31.7386 99.3054 25.9133 94.2169 21.6856L93.6646 21.3149L93.4577 21.1741C93.523 21.1986 93.5903 21.2178 93.6589 21.2315C93.8106 21.2632 93.965 21.2812 94.1201 21.2853C94.4627 21.2905 94.8035 21.2352 95.126 21.1222C95.3453 21.0462 95.5558 20.948 95.7542 20.8293L95.9915 20.6885C96.3958 20.4438 96.8 20.1862 97.2062 19.9045L97.3789 19.7822C97.8481 19.4458 98.298 19.0845 98.7265 18.6998C99.0207 18.4366 99.3149 18.1437 99.6147 17.8416C99.9943 17.445 100.353 17.0669 100.653 16.7555L101.412 15.9771C102.171 15.3006 102.839 14.7371 102.839 14.7371L105.834 12.3722L106.174 11.9496C106.274 11.885 106.368 11.8118 106.455 11.7309C106.385 11.7629 106.313 11.789 106.239 11.8087C106.086 11.856 105.937 11.9136 105.793 11.9811C105.204 12.2295 104.223 12.6724 103.982 12.817C103.809 12.9227 103.153 13.26 102.547 13.5695L102.268 13.7104L102.202 13.7437C101.701 14.0847 101.063 14.5092 100.435 14.9596C99.8425 15.3302 99.3244 15.6249 99.1896 15.5805L99.6698 15.1375C100.476 14.4534 101.32 13.8124 102.198 13.2173C102.767 12.8819 106.005 11.06 106.225 10.8802C106.446 10.7004 107.174 10.0999 107.233 9.9683C107.292 9.83671 107.725 9.87007 107.725 9.64766C107.727 9.59765 107.727 9.54754 107.725 9.49753L108.602 9.03974L109.361 8.23536C109.361 8.23536 109.972 7.73864 110.445 7.26417C109.936 7.47546 109.294 7.74605 108.577 8.06114L107.772 8.41884C106.432 9.02306 104.925 9.74219 103.555 10.4854L103.187 10.6874C102.445 11.1007 101.682 11.54 100.938 11.9848C98.0432 13.6863 95.4335 15.3618 95.4335 15.3618L95.0273 15.712C94.5357 16.1402 93.7234 16.8241 93.2774 17.0094C93.2482 17.0215 93.2185 17.032 93.1882 17.041C93.1378 17.0583 93.0829 17.0583 93.0325 17.041C92.9338 17.0002 92.9737 16.8556 93.0876 16.6462C93.0876 16.6295 93.0971 16.6128 93.1009 16.5943C93.1426 16.4441 93.1958 16.2718 93.2584 16.079C94.0913 13.6581 95.0841 11.2925 96.2306 8.99711C96.552 8.34603 96.9126 7.71414 97.3106 7.10477C97.481 6.86105 97.6158 6.59531 97.7111 6.31522C97.7395 6.26888 97.768 6.22069 97.7946 6.17064C97.8398 6.09007 97.8792 6.00646 97.9123 5.92044C97.9237 5.89078 97.9331 5.86298 97.9426 5.83333L97.9654 5.7629C97.9791 5.71224 97.9898 5.66088 97.9977 5.60906C97.9798 5.47636 97.9753 5.34227 97.9844 5.20873C97.9749 5.12903 97.9464 5.10122 97.9407 5.04191C97.9256 4.97357 97.9161 4.90416 97.9123 4.83433C97.9123 4.76205 97.8249 4.72312 97.8249 4.72312L97.7281 4.46921C97.7281 4.46921 97.656 4.37469 97.6219 4.32279C97.5871 4.27413 97.5484 4.22826 97.5061 4.18563C97.5061 4.18563 97.4302 4.10038 97.3599 4.02995L97.3106 3.98547C97.2866 3.95973 97.2557 3.9411 97.2214 3.93172C97.191 3.93172 97.1398 3.87982 97.0885 3.83163L97.0449 3.79271C97.0089 3.77781 96.9722 3.76482 96.9348 3.75379C96.8494 3.79086 96.0674 3.77788 95.9421 3.82237C95.5322 4.30796 94.978 4.94739 94.8318 5.03265C94.606 5.16239 95.1336 4.42473 95.1697 4.3543C95.1848 4.3302 95.3595 4.0874 95.5834 3.79827L95.2987 3.76491C94.4124 4.4655 93.1768 5.60721 92.6112 6.8768C92.4935 7.18447 92.4214 7.38464 92.4214 7.38464C92.4722 7.21115 92.5356 7.04144 92.6112 6.8768C92.8807 6.17065 93.4045 4.88994 93.9284 4.1115C94.0574 3.92616 94.1808 3.74082 94.308 3.57401C94.0973 3.52211 93.8809 3.46095 93.6589 3.38867C92.7687 4.40249 91.2617 6.58952 90.0147 10.7671C88.1167 17.141 88.3065 16.4627 88.3065 16.4627C88.3065 16.4627 89.2005 11.0377 90.0147 8.84142C90.7586 6.94119 91.6818 5.11263 92.7725 3.3794C92.5225 3.45842 92.2891 3.58085 92.0835 3.74081L91.8197 4.02624C91.7876 4.03234 91.7563 4.0423 91.7267 4.0559C91.5657 4.21791 91.4173 4.39137 91.2826 4.57485C91.1934 4.72869 91.1478 4.7602 91.0719 4.87882C91.034 4.93998 91.0074 4.98446 90.9941 5.00855L90.9827 5.02709C90.8157 5.32734 90.6733 5.86298 90.5291 5.9538C90.2316 6.12913 89.9629 6.34718 89.7319 6.60064C89.6864 6.71184 89.6427 6.82676 89.5991 6.94538C89.6313 7.11033 89.4624 7.51808 89.2688 7.91657C88.8627 9.20469 88.5096 10.6411 88.2952 11.6549C88.2838 12.1702 87.6802 14.8539 87.2057 17.0632C87.1032 16.9928 87.0026 16.9205 86.9001 16.8519C86.8361 16.8591 86.7712 16.8521 86.7103 16.8315C86.4424 16.7323 86.1812 16.6165 85.9284 16.4849L86.0328 16.6869L85.5222 16.4052C85.5222 16.4052 86.4712 17.8157 86.3668 17.9454C86.2624 18.0752 85.8563 17.8157 85.8563 17.8157C85.8563 17.8157 85.1122 16.9835 84.9073 16.9631C84.7023 16.9427 85.0876 17.534 85.0876 17.534C84.9681 17.3923 84.8185 17.2779 84.6491 17.1985C84.4593 17.1559 85.2868 18.3569 85.2868 18.3569C85.2868 18.3569 84.9073 18.14 84.2562 17.7341C84.2034 17.7013 84.1482 17.6722 84.0911 17.647C83.871 17.9399 83.6831 18.2531 83.48 18.5552C83.48 18.7517 83.499 18.9259 83.499 18.9259L83.7001 19.2261L86.42 21.7913C86.1201 24.0839 85.7443 26.7677 85.6778 28.5915C85.5905 30.9527 85.2413 32.8543 86.0574 33.3548C86.8736 33.8552 87.1621 30.9824 87.1621 30.9824C87.0729 35.2267 88.3009 32.113 88.3009 32.113C88.3009 32.113 89.0449 29.0122 90.1988 25.3369L96.578 31.6552C97.1474 32.0777 97.5782 32.3446 97.7168 32.3576C98.4266 32.4299 99.1687 34.2018 99.3111 33.7884C99.442 33.4178 93.8657 27.5295 92.9357 26.6213L101.936 35.388L106.704 39.9159C106.704 39.9159 107.14 40.6257 107.431 40.4719C107.721 40.318 106.558 39.7064 106.453 39.0522C106.349 38.3979 102.547 35.0803 102.547 35.0803L98.2178 30.482C98.2178 30.482 102.429 33.8181 103.018 34.4075C103.606 34.9969 104.794 35.8532 105.149 35.8606C105.324 35.8606 105.719 36.2609 106.087 36.6297C106.246 36.7891 106.404 36.9448 106.54 37.0597L110.858 41.1373L108.37 37.9827L113.199 42.2456C113.199 42.2456 109.503 38.0495 103.424 32.252ZM93.1977 17.1577L93.209 17.2189L93.1787 17.2022C93.1842 17.1871 93.1905 17.1722 93.1977 17.1577ZM93.1787 17.2022C93.1787 17.2022 93.1787 17.2244 93.1616 17.2634L93.1787 17.2022ZM102.801 32.4762L102.479 32.1389L102.815 32.4447C102.809 32.4547 102.805 32.4653 102.801 32.4762Z" fill="white"/>
<path d="M82.2347 24.4898L82.0221 23.5519H83.7663L81.9765 23.3518L80.9194 18.683C80.8434 15.408 80.6422 10.4798 80.0975 7.36788L79.9799 14.5128L79.103 10.4872L79.122 10.4594L78.4842 4.64335L78.3476 4.84537C78.1331 4.51176 77.5884 4.47469 76.9715 4.62297C76.9715 4.62297 76.7476 4.62297 76.6109 4.64335C76.4743 4.66374 76.1915 4.90654 76.1915 4.90654H76.1763C76.1657 4.91359 76.1542 4.91921 76.1421 4.92322C76.0622 4.96405 75.9782 4.99696 75.8916 5.02145C75.7506 5.07873 75.6142 5.14626 75.4835 5.22347C75.4156 5.24422 75.3572 5.28749 75.3184 5.3458C75.153 5.49502 74.9738 5.62903 74.7832 5.74614C74.6379 5.9475 74.5109 6.16083 74.4036 6.38372C73.5665 7.86645 74.2138 10.8319 74.2138 10.8319C73.5476 11.9032 72.8453 13.0078 72.8453 13.0078C72.8453 13.0078 71.3497 15.3913 70.4254 16.9482C69.8864 17.8564 68.8159 20.0675 68.0187 21.756C67.4209 21.7893 66.9407 21.9765 66.9502 22.4973C66.8856 22.5715 66.804 22.6493 66.7452 22.6438C66.6332 22.6345 66.6769 22.931 66.6769 22.931L66.6237 23.02L66.6123 23.0367C66.5725 23.1053 66.5307 23.1775 66.489 23.2535C66.4681 23.2906 66.2251 23.5927 66.1587 23.6687C66.1207 23.7113 66.1492 23.8095 66.1815 23.8911C66.1397 23.9949 66.1018 24.1005 66.0676 24.2062C66.0177 24.2615 65.9767 24.3241 65.9461 24.3915C65.8793 24.6123 65.8342 24.8389 65.8114 25.068C65.8114 25.3182 66.172 25.5703 66.172 25.5703C66.227 25.619 66.2915 25.6562 66.3618 25.6797C65.9442 26.8214 65.4242 28.2615 65.1015 29.2215C64.4942 31.0342 64.7048 32.0888 64.7048 32.0888C65.1015 32.5447 66.0334 31.2177 66.1416 30.9767C66.2498 30.7358 67.3734 28.8953 67.5177 28.6785L67.8043 28.2559C68.4477 27.8018 69.1025 26.9289 69.6434 26.1022C72.0899 26.2616 75.4 26.3358 78.1844 26.371C78.6778 27.7592 79.0821 28.9787 79.1201 29.3513C79.2245 30.3614 80.0804 32.5373 80.3272 32.6874C80.5739 32.8376 80.4335 32.5707 80.2645 31.8552C80.0956 31.1398 79.251 28.8193 79.6952 29.2438C80.1393 29.6682 80.7694 32.0146 80.7694 32.0146C80.7694 32.0146 80.9915 34.2109 81.3957 34.2758C81.8 34.3407 81.7981 33.679 81.7981 33.679C81.7981 33.679 82.2726 33.4121 82.1227 32.567C82.0804 32.1503 82.0804 31.7307 82.1227 31.3141C82.136 31.1046 82.153 30.9156 82.1663 30.7803C82.1834 30.5949 81.7867 29.4829 81.4299 28.3097C81.2211 27.6387 81.0219 26.9474 80.9118 26.3988H81.6254C81.6615 26.6564 81.6899 26.9289 81.7279 27.1809C81.7584 27.417 81.8223 27.6478 81.9177 27.8667L81.9784 27.9946C82.1834 28.4375 82.3296 28.8564 82.4719 29.0362C82.5554 29.1437 82.6389 29.1696 82.73 29.0696C82.7355 29.0635 82.74 29.0566 82.7433 29.0492C82.8051 28.8794 82.829 28.6987 82.8135 28.5191V28.4357C82.7857 27.7534 82.7223 27.0729 82.6237 26.3969H83.6392L82.6143 26.3135C82.5744 26.0207 82.5459 25.8279 82.5459 25.8279L82.5042 25.6426C83.4532 25.5629 84.1497 25.3998 84.1706 25.0866C84.1801 24.8234 83.4019 24.638 82.2347 24.4898ZM72.6081 20.9312C72.8643 20.5753 73.8114 19.4355 73.9784 19.3651C74.0866 19.3187 74.8192 18.2085 75.3544 17.4153L76.2465 21.1499C76.2465 21.1499 76.5046 21.8208 76.8671 22.779L71.921 22.223C72.2247 21.6225 72.5018 21.0795 72.6081 20.9312ZM72.4885 23.5538H77.1537L77.3758 24.1506C76.0909 24.0913 74.8515 24.0449 73.8949 23.9912C72.6403 23.9189 72.4885 23.5519 72.4885 23.5519V23.5538ZM76.4743 25.7779C76.4743 25.6945 77.0626 25.6908 77.9319 25.7019L78.0173 25.9391C77.2866 25.8594 76.7039 25.8001 76.4838 25.7668L76.4743 25.7779ZM80.8586 26.1875C80.832 26.0361 80.8161 25.8832 80.8112 25.7297L81.4641 25.7167C81.522 25.89 81.5639 26.068 81.5893 26.2487L80.8586 26.1875Z" fill="white"/>
<path d="M22.3883 18.7185C22.3883 18.7185 25.3644 19.1263 26.4937 21.5357C25.892 20.6442 24.6223 19.7916 22.0467 19.015C20.4847 18.5424 18.3285 18.2737 16.4894 18.0216L18.9568 17.6732C24.7115 16.385 28.1601 12.263 27.9931 10.1483C27.8261 8.03354 26.4405 2.70125 19.7311 0.831155C13.0218 -1.03894 7.39422 0.831155 7.39422 0.831155L10.8505 0.645813C9.59253 0.837444 8.39351 1.29819 7.33919 1.9951C7.20823 2.05441 7.08865 2.11001 7.00324 2.15264C6.77684 2.24454 6.57016 2.37721 6.39399 2.54372C6.26303 2.6716 6.2858 2.87362 6.39399 2.831L7.34297 2.46031C9.5864 1.8042 12.7598 1.71895 13.8056 1.70968H13.8929C14.1074 1.70968 14.1587 1.73748 14.1852 1.92838C14.2156 2.14894 13.724 2.23419 13.724 2.23419C8.92781 2.85324 5.31972 5.43505 6.55721 5.10699C7.83646 4.76967 11.1124 4.23033 11.1124 4.23033C8.85378 4.63994 7.26136 6.56934 7.26136 6.56934L8.89174 6.35805C8.33753 6.47296 7.37335 6.88813 8.29767 8.38199C8.67727 8.99547 9.38901 9.18081 10.1672 9.15857C9.42507 11.6143 8.48367 14.7188 7.63337 17.4489C7.58402 17.6027 7.53847 17.7603 7.49102 17.9178C5.99161 18.3719 4.24736 19.1151 4.14677 20.1419C4.12994 20.2904 4.15152 20.4407 4.20955 20.579C4.26758 20.7172 4.36019 20.8391 4.47892 20.9333C4.54542 21.1157 4.64941 21.2828 4.78449 21.4245C4.94202 21.5524 5.80751 21.8638 6.59138 21.7766C6.53634 22.0732 6.48509 22.3586 6.43764 22.6348C6.43764 22.6348 6.43764 22.6348 6.43764 22.6533C6.29529 23.4873 6.18521 24.238 6.1017 24.9034C5.86634 26.5103 5.58734 28.4619 5.55507 28.9438C5.49813 29.7982 5.5304 30.7083 5.64049 30.6934C5.75057 30.6786 5.78473 29.6203 5.83028 29.4461C5.85686 29.3256 6.20039 27.9912 6.41297 27.1682C6.32946 27.8095 6.25543 28.4545 6.1909 29.0773C6.1909 29.0773 6.10549 29.8835 6.0011 30.825C2.76503 31.433 -0.000335693 31.8907 -0.000335693 31.8907C1.92633 32.2304 3.88219 32.3868 5.83977 32.3578C5.75816 33.1325 5.69553 33.7479 5.69553 33.772C5.69553 33.8405 5.57975 34.1093 5.69553 34.1093C5.77904 34.1093 5.98402 33.5236 6.13016 33.1826C6.13016 33.1826 6.50976 32.8267 6.4756 33.1826C6.4756 33.2419 6.46421 33.3049 6.46231 33.3679H6.44713H6.46042C6.44713 33.6997 6.4718 34.0889 6.4756 34.2427C6.4756 34.4281 6.48509 34.7988 6.73752 34.8785C6.98995 34.9582 6.84002 34.2075 7.01843 34.2168C7.19684 34.2261 7.36955 34.1834 7.30123 34.6412C7.30123 34.6968 7.30123 34.7228 7.30123 34.7265C7.28225 34.8229 7.26517 34.9248 7.24619 35.0286L6.77928 37.2064L6.91593 36.7875L8.02626 33.3494C8.31855 33.3179 8.66398 33.2715 9.07015 33.2067C8.84619 34.3391 8.69055 35.099 8.69055 35.099C8.97249 34.4617 9.21957 33.8102 9.43076 33.1474C10.9492 32.8916 13.2267 32.4153 16.6147 31.5442C24.2484 29.587 26.283 26.6382 26.8088 24.731C26.8088 24.731 29.3236 19.5099 22.3883 18.7185ZM16.7058 8.75637C17.3397 8.64702 18.0343 8.54323 18.7138 8.47095C19.3998 8.42337 20.0891 8.4551 20.7675 8.56547C21.1471 8.64146 21.3957 8.70448 21.3957 8.70448L21.352 8.68224L21.483 8.7156H21.4735L21.3046 8.66556L21.2381 8.6322C21.0531 8.53995 20.863 8.45765 20.6688 8.38569C19.9366 8.13374 19.1674 7.99979 18.3912 7.98906C18.1558 7.95941 17.9148 7.93346 17.668 7.91307H17.5504C18.0192 7.69799 18.5315 7.58833 19.0495 7.59218C19.5675 7.59603 20.078 7.71328 20.5435 7.93531H20.5587L20.5928 7.95199C21.0585 8.14132 21.4933 8.39608 21.8835 8.70818H21.855C22.2805 8.95093 22.6107 9.32549 22.7933 9.77242C22.9759 10.2193 23.0003 10.713 22.8628 11.1751C22.5648 12.1018 21.3065 13.6364 19.5812 14.2944C18.4291 14.7337 16.1117 15.4064 14.6996 15.8179C15.4588 13.1286 16.1705 10.6432 16.7058 8.75637ZM9.84263 30.5322L9.594 30.5859L8.86707 30.7546C8.86707 30.7546 8.91831 30.5693 9.00941 30.2375C9.38901 28.8734 10.4538 25.1795 11.2149 23.7505C11.2149 23.7505 10.4329 28.2543 9.98118 30.0318C9.93373 30.2375 9.88629 30.4099 9.84263 30.5322ZM15.2158 28.7158C14.2251 29.0773 12.4638 29.5072 10.4842 29.9298C11.2434 27.5 12.1468 24.49 13.0521 21.4152C17.1916 20.9945 20.2645 22.379 20.2075 24.0563C20.1506 25.7337 18.5316 27.5019 15.2158 28.7158Z" fill="white"/>
<path d="M121.527 2.9181C121.527 2.9181 114.034 4.06536 112.175 11.3085C112.175 11.3085 114.694 5.73344 121.527 2.9181Z" fill="white"/>
<path d="M197.585 6.64879C195.497 7.15477 191.17 7.3086 187.505 7.33826C185.709 7.24929 183.775 7.15292 181.621 7.04727C181.621 7.00464 181.621 6.62284 181.621 6.58577L181.48 7.04727H181.425V7.01947C181.444 6.79559 181.475 6.57286 181.518 6.35224C181.53 6.2781 181.448 6.19284 181.374 6.21323C181.328 6.22278 181.288 6.24853 181.26 6.28552C181.184 6.42823 181.127 6.58021 181.051 6.72478C181.003 6.8346 180.935 6.93505 180.85 7.02133H180.759C180.748 7.01021 180.738 6.99723 180.74 6.98611C180.752 6.90666 180.772 6.82847 180.799 6.75258C180.852 6.6006 180.913 6.44862 180.972 6.29849C181.043 6.13574 181.067 5.95642 181.038 5.78139C181.019 5.66979 181.031 5.55534 181.072 5.44963C181.11 5.34398 181.048 5.27355 180.934 5.26428H180.888L180.102 6.99538L179.611 6.97128L179.858 5.21053H179.825C179.774 5.15678 179.732 5.07709 179.672 5.05485C179.451 4.97515 179.222 5.04558 178.996 5.06968C178.969 5.06968 178.943 5.10303 178.92 5.12342C178.897 5.14381 178.882 5.18088 178.857 5.19571C178.831 5.20766 178.801 5.21337 178.772 5.21239C178.772 5.21239 178.759 5.19015 178.76 5.17717C178.76 5.11416 178.774 5.04929 178.774 4.99183C178.774 4.93437 178.724 4.82873 178.69 4.84726C178.648 4.86703 178.611 4.8955 178.582 4.93067C178.52 5.02522 178.475 5.1301 178.451 5.24019C178.451 5.26243 178.409 5.28282 178.383 5.29579C178.356 5.30877 178.288 5.2717 178.278 5.22907C178.269 5.18644 178.258 5.10489 178.242 5.04373C178.231 4.9917 178.209 4.94273 178.176 4.90039C178.143 4.85806 178.101 4.82344 178.053 4.79907C177.999 4.77127 177.944 4.74903 177.889 4.72679C177.834 4.78766 177.77 4.84069 177.7 4.88433C177.642 4.91263 177.59 4.95249 177.549 5.00134C177.508 5.05019 177.478 5.10693 177.46 5.16791C177.443 5.21424 177.432 5.26058 177.415 5.30506C177.364 5.4348 177.345 5.44777 177.179 5.44036L177.115 4.99369C177.115 4.99369 176.925 5.15493 176.804 5.06597C176.682 4.977 176.629 5.20127 176.629 5.20127C176.534 5.31062 176.35 5.92595 176.267 6.22065V6.23362L176.244 6.32073C176.244 6.34112 176.232 6.3578 176.23 6.36892C176.207 6.46476 176.173 6.55794 176.13 6.64693C176.108 6.69375 176.091 6.74287 176.081 6.79335C171.287 6.49032 166.532 5.75005 161.88 4.58223L171.113 7.5477L161.624 5.71837C161.445 5.58863 160.88 5.56454 160.986 5.71837C161.2 6.02419 161.246 5.84069 161.536 5.91668C161.749 5.97497 161.958 6.04426 162.163 6.12427L162.592 6.25771C162.633 6.27254 162.648 6.1984 162.817 6.3337C162.986 6.469 163.857 6.75073 163.886 6.76555C164.182 6.86741 164.497 6.90596 164.81 6.87861C166.663 7.51248 168.796 8.19454 169.832 8.36134L163.055 7.39015C162.606 7.22423 162.138 7.11402 161.662 7.0621C161.578 7.05513 161.494 7.06984 161.419 7.10473C161.399 7.11596 161.382 7.13113 161.369 7.14921C161.321 7.22609 161.289 7.3119 161.276 7.40127C161.276 7.42537 161.265 7.45132 161.261 7.47727C161.212 7.61813 161.162 7.76454 161.149 7.81644C161.138 7.91192 161.138 8.00824 161.149 8.10372C161.149 8.1445 161.149 8.17415 161.149 8.17415C161.16 8.27769 161.16 8.38199 161.149 8.48553C161.133 8.55945 161.133 8.63586 161.149 8.70979C161.182 8.90021 161.189 9.0939 161.172 9.2862C161.153 9.38168 161.141 9.47828 161.136 9.57534L161.172 9.76068L161.136 10.0813C161.136 10.0813 161.233 10.5614 161.255 10.6262C161.278 10.6911 161.255 10.7152 161.255 10.7597C161.244 10.9617 161.197 11.3305 161.17 11.5122C161.163 11.6545 161.174 11.7971 161.204 11.9366C161.09 12.9875 160.807 14.4647 160.583 15.5471C160.53 15.864 160.475 16.1865 160.418 16.509V16.5368C160.405 16.6072 160.394 16.6776 160.38 16.7481C160.361 16.8593 160.34 16.9723 160.322 17.0835C160.166 17.9491 160.001 18.7905 159.841 19.5115C159.72 20.1229 159.557 20.726 159.355 21.3167C158.701 22.9978 156.825 27.1309 155.062 29.0603C153.299 30.9897 152.135 31.3752 151.029 31.6922C150.255 31.9127 149.11 31.4401 148.495 31.1362H148.767C149.369 31.127 149.967 31.0423 150.547 30.8841C151.023 30.7395 151.443 30.5134 151.659 30.1705C151.659 30.1705 151.372 30.2891 151.266 30.0908C151.217 29.973 151.21 29.8425 151.245 29.7201C151.209 29.6645 151.173 29.6052 151.139 29.5441C151.027 29.2883 150.847 28.6841 150.718 27.3033C150.528 25.1848 151.336 21.4854 151.365 21.3575C152.301 18.0696 154.128 13.4416 154.557 11.7475C154.793 10.8208 154.696 10.1054 154.468 9.56978L153.176 13.4749L151.38 18.6015C151.38 18.6015 152.599 11.868 153.625 8.89513C153.665 8.78207 153.703 8.67087 153.743 8.56522C153.58 8.41772 153.397 8.29297 153.198 8.19454C152.618 7.45317 151.68 6.74517 151.111 6.74331C150.351 6.74331 149.716 6.25957 148.962 6.43009C148.809 6.47453 148.675 6.56784 148.582 6.69512C148.582 6.69512 147.633 7.85351 147.529 8.55966C147.425 9.26581 145.396 17.3727 145.107 18.861C145.107 18.9036 145.09 18.9518 145.079 19.0018C145.06 18.0674 144.953 17.1367 144.758 16.2217C144.555 14.4202 143.517 8.40953 138.544 5.9278C138.635 6.0075 138.724 6.08905 138.812 6.1706C138.689 6.10224 138.562 6.04037 138.432 5.98526C138.36 5.95437 138.286 5.92472 138.21 5.8963C138.132 5.86665 138.054 5.8407 137.973 5.81475C137.973 5.81475 138.352 6.12612 138.944 6.70995L138.998 6.76184C139.102 6.86749 139.214 6.9824 139.33 7.10473L139.493 7.27709C140 7.8202 140.478 8.38808 140.926 8.97854C141.317 9.49193 141.716 10.0628 142.101 10.6855C142.323 11.0451 142.541 11.4269 142.75 11.8161C142.771 11.8532 142.79 11.8921 142.809 11.9292C142.828 11.9662 142.871 12.0441 142.9 12.1034L142.913 12.1275C142.847 12.02 142.778 11.9125 142.706 11.8031C142.734 11.8612 142.761 11.9168 142.786 11.97L142.94 12.1812L142.792 11.9848C142.982 12.3783 143.134 12.7885 143.245 13.2099C142.144 11.1452 137.439 6.97314 137.386 6.9268C133.066 4.12814 129.172 3.90758 129.172 3.90758C126.811 3.65482 124.432 4.17649 122.409 5.39031C123.728 5.04312 125.08 4.83069 126.444 4.75645C126.668 4.74347 126.883 4.7342 127.088 4.72494L126.794 4.84541C126.716 4.86765 126.642 4.88989 126.57 4.91398C126.408 4.96801 126.252 5.03755 126.105 5.12157C125.605 5.31989 125.137 5.50337 124.966 5.55898C124.548 5.69798 124.662 6.19099 124.662 6.19099C124.662 6.22991 124.594 6.35224 124.738 6.3578C124.896 6.35019 125.053 6.32848 125.207 6.29293C125.207 6.29293 125.275 6.23547 125.547 6.24289C125.818 6.2503 126.023 6.24289 126.199 6.24289C126.376 6.24289 127.203 6.18173 127.226 6.17987C127.351 6.20896 127.478 6.2294 127.606 6.24103C127.669 6.2475 127.732 6.2506 127.796 6.2503C128.06 6.2503 128.45 6.35224 128.627 6.35224C128.666 6.35162 128.706 6.34852 128.745 6.34297C129.003 6.38913 129.257 6.45735 129.504 6.54685C129.504 6.54685 128.923 6.71737 128.132 6.91754L127.684 7.02689C127.684 7.02689 127.9 7.02689 128.215 7.02689C128.911 7.01396 129.607 7.06484 130.293 7.17886C131.098 7.3642 131.677 7.45873 131.78 7.54955L131.893 7.64778C132.371 7.81041 132.826 8.03017 133.249 8.30203C134.303 9.0067 135.16 9.95804 135.741 11.0692C135.89 11.2607 136.04 11.4572 136.19 11.6586C136.326 11.8402 136.459 12.0256 136.589 12.2146C138.085 14.3775 138.386 18.2401 136.923 22.6623C135.46 27.0846 131.337 29.7424 131.337 29.7424C131.337 29.7424 129.037 30.9286 131.337 30.6135C132.484 30.464 133.614 30.2159 134.716 29.8721L135.908 29.4014L136.025 29.4143L132.81 31.3345C134.023 31.5328 135.676 30.9638 136.593 30.5931C136.023 31.2511 134.885 31.9535 134.78 32.0758C134.59 32.3149 132.599 32.6838 131.455 33.0526C131.224 33.1259 130.985 33.1744 130.743 33.1972C127.2 34.2054 123.389 31.3771 123.389 31.3771C123.309 31.3511 123.259 31.3289 123.256 31.3104C123.212 31.151 121.737 29.7665 121.737 29.4106C121.737 29.0548 120.773 27.9075 120.731 27.7425C120.709 27.6573 120.409 26.5971 120.13 25.6093C119.929 25.0567 119.771 24.4905 119.655 23.9152C119.655 23.9091 119.655 23.9029 119.655 23.8967C119.233 21.6227 119.333 19.2853 119.949 17.0539C120.864 13.6158 122.762 10.7856 125.034 9.07121C124.875 8.5819 124.085 7.30304 120.335 8.93035C120.335 8.93035 123.728 6.63582 123.751 6.0835C123.44 6.06007 123.128 6.07502 122.821 6.12798C122.506 6.26513 121.855 6.54499 121.739 6.58206C121.587 6.6321 120.538 7.00464 120.538 7.00464L119.336 7.63851C119.336 7.63851 117.945 8.55039 118.473 7.9851C118.554 7.89614 118.636 7.79976 118.714 7.71265C118.792 7.62554 118.879 7.51248 118.953 7.4161C118.79 7.4161 118.573 7.53102 118.42 7.53102C118.266 7.53102 118.583 7.07137 118.583 7.07137C118.545 6.96451 118.545 6.84832 118.583 6.74146C118.649 6.59874 118.515 6.60801 118.583 6.47457C118.651 6.34112 118.746 6.05384 118.746 6.05384L118.42 6.20953C114.574 8.66531 111.839 12.5779 111.226 17.2244C111.145 17.8348 111.103 18.4494 111.099 19.0648C111.365 18.6311 111.699 17.988 111.615 17.5951C111.479 16.9594 112.39 15.5415 112.458 15.3506C112.526 15.1597 113.286 14.5481 113.286 14.5481C113.286 14.5481 111.445 22.4214 113.286 25.8836C114.066 27.3525 115.051 28.7096 116.21 29.9166C116.97 30.3484 117.877 30.9193 117.886 31.2344C117.903 31.7904 119.15 32.2167 119.15 32.2167C120.415 32.8833 121.771 33.3677 123.178 33.655C123.594 33.7198 124.034 33.7847 124.487 33.8403C124.577 33.8466 124.667 33.8577 124.755 33.8737C126.909 34.135 129.866 34.6539 131.318 34.1572C131.318 34.1572 130.098 35.3416 126.486 35.4843C134.856 36.411 142.219 31.0027 144.392 23.602C144.295 25.789 144.525 28.2967 145.68 30.3206C146.599 31.9276 148.106 32.4873 149.59 32.58C150.807 32.7264 152.297 32.58 154.02 31.7886H154.037C154.13 31.7459 154.227 31.7033 154.318 31.657C154.235 31.9081 154.083 32.1319 153.878 32.3038C153.586 32.6812 153.211 32.9902 152.781 33.2083C152.342 33.44 151.585 33.5308 151.029 33.566C151.196 33.5771 151.363 33.5845 151.526 33.5864C156.996 33.6512 160.132 29.1382 161.986 24.5899C162.459 23.4296 162.971 21.882 163.47 20.2214L163.609 20.1862C163.609 20.1862 163.947 19.2984 164.368 18.1474C163.717 20.5772 163.068 23.172 162.998 24.0783C162.998 24.0783 163.163 23.6724 163.419 23.0015L164.937 19.543C164.937 19.543 166.131 15.7936 166.405 14.422C166.405 14.422 166.678 13.4601 166.678 13.3971V12.8411L166.845 12.4518L166.959 11.755L167.037 10.7411C168.849 10.958 171.155 11.2119 174.008 11.4955C174.051 11.4856 174.095 11.4806 174.139 11.4807H174.558L173.879 13.5361C173.77 13.8879 173.686 14.2464 173.626 14.6092H173.657C173.743 14.7534 173.781 14.9206 173.765 15.087C173.748 15.2533 173.679 15.4104 173.566 15.5359C173.165 15.9863 173.446 16.3422 173.446 16.3422C173.431 16.4138 173.392 16.4788 173.336 16.5275C173.158 16.7818 172.994 17.0454 172.844 17.3171C172.81 17.4283 172.776 17.5395 172.753 17.6525C172.636 18.2438 172.44 18.8146 172.313 19.404C172.285 19.5319 172.249 19.6561 172.216 19.7747C172.184 19.8933 172.142 20.0583 172.112 20.2028C172.101 20.3285 172.077 20.4527 172.04 20.5735C171.984 20.7087 171.942 20.849 171.914 20.9924C171.774 21.5484 171.637 22.1044 171.493 22.6475C171.426 22.8646 171.379 23.0874 171.353 23.3129C171.352 23.3764 171.339 23.4393 171.315 23.4982C171.238 23.75 171.182 24.0072 171.146 24.2674C171.108 24.3746 171.084 24.4861 171.074 24.5991C171.06 24.7437 171.085 24.892 171.074 25.0347C171.021 25.1869 170.98 25.3423 170.948 25.4999C170.948 25.6273 170.921 25.7532 170.871 25.8706C170.83 25.9644 170.8 26.0619 170.779 26.1616C170.699 26.3838 170.652 26.6159 170.637 26.8511C170.658 26.9956 170.688 27.307 170.704 27.4905L170.776 27.2792L171.009 26.5897L171.429 25.3553C171.438 25.3438 171.45 25.3343 171.463 25.3273C171.477 25.3203 171.491 25.316 171.506 25.3146C171.542 25.3146 171.592 25.3887 171.571 25.4165C171.492 25.5245 171.451 25.6545 171.453 25.7872C171.453 25.82 171.447 25.8526 171.436 25.8836C171.309 26.1857 171.286 26.5137 171.186 26.8232C171.148 26.9402 171.148 27.0658 171.186 27.1828C171.1 27.2818 171.052 27.4071 171.051 27.5368C171.054 27.6495 171.049 27.7622 171.036 27.8741C171.035 27.9385 171.019 28.0018 170.99 28.0595C170.915 28.1861 170.876 28.3302 170.878 28.4765C170.88 28.6229 170.832 28.7657 170.741 28.8824C170.7 28.9327 170.677 28.9942 170.673 29.0585C170.673 29.2438 170.599 29.4106 170.592 29.583C170.563 29.7715 170.52 29.9574 170.461 30.139C170.434 30.265 170.409 30.3929 170.385 30.519C170.38 30.5999 170.362 30.6795 170.33 30.7544C170.237 30.9432 170.182 31.1477 170.168 31.3567C170.144 31.4661 170.102 31.5736 170.079 31.6829C170.039 31.8886 170.007 32.0962 169.973 32.3019C169.97 32.334 169.97 32.3663 169.973 32.3983C169.97 32.4136 169.97 32.4294 169.973 32.4447C170.015 32.5656 170.011 32.6971 169.961 32.8153L169.933 32.9247L170.005 32.9544C170.005 33.0804 170.03 33.1768 170.087 33.1879C170.276 33.2231 170.421 33.4585 170.924 33.4362C171.03 33.5141 171.13 33.6003 171.222 33.6939C171.241 33.6568 171.258 33.6197 171.275 33.5827C171.296 33.6661 171.275 33.768 171.313 33.8403C171.402 33.9867 171.48 33.8051 171.609 33.5326C171.738 33.2602 171.48 33.1619 171.609 32.8839C171.728 32.6337 171.943 32.289 171.975 32.2371C172.094 32.1614 172.238 32.1339 172.377 32.1606C172.516 32.1872 172.639 32.2659 172.719 32.3798L171.905 37.6324L173.423 32.8617C173.496 32.851 173.571 32.8552 173.642 32.874C173.713 32.8928 173.78 32.9259 173.837 32.971C174.477 30.7469 175.735 26.4674 176.141 25.8206L174.894 31.6236C175.319 31.0083 175.758 30.4022 176.155 29.7702C176.143 29.6645 176.134 29.5589 176.126 29.4551C176.105 29.4384 176.086 29.4273 176.088 29.4217V29.3939C176.091 29.375 176.101 29.3575 176.115 29.3439C176.114 29.3316 176.114 29.3192 176.115 29.3068C176.382 28.3431 178.271 21.5225 178.903 17.7044L177.03 23.1146H176.726L178.104 18.2957L178.928 15.371C178.908 15.2822 178.914 15.1898 178.945 15.1041C179.062 14.7593 179.244 14.4387 179.362 14.094C179.394 14.0013 179.423 13.9086 179.446 13.8141C179.445 13.8073 179.445 13.8005 179.446 13.7937L179.721 12.7984C177.134 12.5908 175.8 11.716 175.8 11.716L180.389 12.1349H180.408L180.75 12.1646H180.769C192.187 13.1061 192.196 12.0515 192.196 12.0515L187.569 11.2249L192.124 11.0266C192.364 11.071 192.608 11.0865 192.851 11.0729C193.014 11.0266 193.147 10.756 193.166 10.68C193.239 10.5129 193.329 10.3533 193.434 10.2036C193.493 10.1388 193.654 9.80331 193.722 9.75512C193.791 9.70693 193.827 9.44745 193.912 9.38443C193.971 9.33921 194.026 9.28897 194.075 9.23431L194.028 9.11383C194.028 9.11383 194.123 8.94518 194.201 8.82285C194.278 8.70052 194.113 8.49665 194.334 8.45217C194.497 8.39866 194.641 8.30173 194.751 8.1723L195.298 7.93692C196.078 7.71712 196.84 7.43698 197.575 7.09917C198.526 6.61542 197.585 6.64879 197.585 6.64879ZM175.162 30.569C175.162 30.569 175.139 30.556 175.139 30.5486C175.139 30.5412 175.152 30.4949 175.179 30.5041C175.182 30.51 175.183 30.5163 175.183 30.5227C175.183 30.529 175.182 30.5354 175.179 30.5412C175.185 30.556 175.171 30.569 175.162 30.569ZM193.1 8.05368C192.458 8.65789 189.194 8.35393 189.683 8.28535C190.173 8.21678 191.24 8.11855 191.35 8.10001C191.46 8.08148 193.32 7.8498 193.1 8.05739V8.05368Z" fill="white"/>
</svg>
